P2
5
5
255
3 33 1 170 36 2 158 3 0 53 0 2 63 27 2 93 23 19 122 243 
95 28 30 102 255 