P3
4 4
255
0
12
59
105
0
0
0
90
0
255
0
250
0
89
0
34
25
75
0
56
76
78
86
45
85
0
0
43
0
23
0
15
175
0
34
4
255
0
255
0
7
0
88
0
0
232
206
255

