P2
6
6
202
42 36 0 140 2 44 81 143 66 70 44 17 48 6 98 24 74 17 170 7 
16 182 174 153 107 75 24 74 169 149 187 106 101 94 171 202 