P2
4
4
213
31 112 11 27 18 213 63 106 59 90 43 18 18 9 15 17 