P2
4
4
231
24 35 30 168 30 45 44 70 28 22 63 13 170 2 29 231 