P2
5
5
245
1 33 0 170 26 19 143 22 47 44 0 24 64 17 8 93 31 8 188 155 
16 16 36 24 245 